<svg width="160" height="55" viewBox="0 0 160 55" fill="none" xmlns="http://www.w3.org/2000/svg">
<circle cx="27.5" cy="27.5" r="26.75" stroke="#FF2828" stroke-width="1.5"/>
<circle cx="27.5003" cy="27.5" r="19.6429" fill="#FC3D3D" fill-opacity="0.73"/>
<path d="M77.052 21.454V34H75.414V28.312H69.024V34H67.386V21.454H69.024V26.962H75.414V21.454H77.052ZM87.5169 34.126C86.3529 34.126 85.2909 33.856 84.3309 33.316C83.3709 32.764 82.6089 32.002 82.0449 31.03C81.4929 30.046 81.2169 28.942 81.2169 27.718C81.2169 26.494 81.4929 25.396 82.0449 24.424C82.6089 23.44 83.3709 22.678 84.3309 22.138C85.2909 21.586 86.3529 21.31 87.5169 21.31C88.6929 21.31 89.7609 21.586 90.7209 22.138C91.6809 22.678 92.4369 23.434 92.9889 24.406C93.5409 25.378 93.8169 26.482 93.8169 27.718C93.8169 28.954 93.5409 30.058 92.9889 31.03C92.4369 32.002 91.6809 32.764 90.7209 33.316C89.7609 33.856 88.6929 34.126 87.5169 34.126ZM87.5169 32.704C88.3929 32.704 89.1789 32.5 89.8749 32.092C90.5829 31.684 91.1349 31.102 91.5309 30.346C91.9389 29.59 92.1429 28.714 92.1429 27.718C92.1429 26.71 91.9389 25.834 91.5309 25.09C91.1349 24.334 90.5889 23.752 89.8929 23.344C89.1969 22.936 88.4049 22.732 87.5169 22.732C86.6289 22.732 85.8369 22.936 85.1409 23.344C84.4449 23.752 83.8929 24.334 83.4849 25.09C83.0889 25.834 82.8909 26.71 82.8909 27.718C82.8909 28.714 83.0889 29.59 83.4849 30.346C83.8929 31.102 84.4449 31.684 85.1409 32.092C85.8489 32.5 86.6409 32.704 87.5169 32.704ZM105.681 21.454V22.786H102.261V34H100.623V22.786H97.1853V21.454H105.681ZM113.656 34.126C112.828 34.126 112.084 33.982 111.424 33.694C110.776 33.394 110.266 32.986 109.894 32.47C109.522 31.942 109.33 31.336 109.318 30.652H111.064C111.124 31.24 111.364 31.738 111.784 32.146C112.216 32.542 112.84 32.74 113.656 32.74C114.436 32.74 115.048 32.548 115.492 32.164C115.948 31.768 116.176 31.264 116.176 30.652C116.176 30.172 116.044 29.782 115.78 29.482C115.516 29.182 115.186 28.954 114.79 28.798C114.394 28.642 113.86 28.474 113.188 28.294C112.36 28.078 111.694 27.862 111.19 27.646C110.698 27.43 110.272 27.094 109.912 26.638C109.564 26.17 109.39 25.546 109.39 24.766C109.39 24.082 109.564 23.476 109.912 22.948C110.26 22.42 110.746 22.012 111.37 21.724C112.006 21.436 112.732 21.292 113.548 21.292C114.724 21.292 115.684 21.586 116.428 22.174C117.184 22.762 117.61 23.542 117.706 24.514H115.906C115.846 24.034 115.594 23.614 115.15 23.254C114.706 22.882 114.118 22.696 113.386 22.696C112.702 22.696 112.144 22.876 111.712 23.236C111.28 23.584 111.064 24.076 111.064 24.712C111.064 25.168 111.19 25.54 111.442 25.828C111.706 26.116 112.024 26.338 112.396 26.494C112.78 26.638 113.314 26.806 113.998 26.998C114.826 27.226 115.492 27.454 115.996 27.682C116.5 27.898 116.932 28.24 117.292 28.708C117.652 29.164 117.832 29.788 117.832 30.58C117.832 31.192 117.67 31.768 117.346 32.308C117.022 32.848 116.542 33.286 115.906 33.622C115.27 33.958 114.52 34.126 113.656 34.126ZM130.61 25.126C130.61 26.17 130.25 27.04 129.53 27.736C128.822 28.42 127.736 28.762 126.272 28.762H123.86V34H122.222V21.454H126.272C127.688 21.454 128.762 21.796 129.494 22.48C130.238 23.164 130.61 24.046 130.61 25.126ZM126.272 27.412C127.184 27.412 127.856 27.214 128.288 26.818C128.72 26.422 128.936 25.858 128.936 25.126C128.936 23.578 128.048 22.804 126.272 22.804H123.86V27.412H126.272ZM140.314 34.126C139.15 34.126 138.088 33.856 137.128 33.316C136.168 32.764 135.406 32.002 134.842 31.03C134.29 30.046 134.014 28.942 134.014 27.718C134.014 26.494 134.29 25.396 134.842 24.424C135.406 23.44 136.168 22.678 137.128 22.138C138.088 21.586 139.15 21.31 140.314 21.31C141.49 21.31 142.558 21.586 143.518 22.138C144.478 22.678 145.234 23.434 145.786 24.406C146.338 25.378 146.614 26.482 146.614 27.718C146.614 28.954 146.338 30.058 145.786 31.03C145.234 32.002 144.478 32.764 143.518 33.316C142.558 33.856 141.49 34.126 140.314 34.126ZM140.314 32.704C141.19 32.704 141.976 32.5 142.672 32.092C143.38 31.684 143.932 31.102 144.328 30.346C144.736 29.59 144.94 28.714 144.94 27.718C144.94 26.71 144.736 25.834 144.328 25.09C143.932 24.334 143.386 23.752 142.69 23.344C141.994 22.936 141.202 22.732 140.314 22.732C139.426 22.732 138.634 22.936 137.938 23.344C137.242 23.752 136.69 24.334 136.282 25.09C135.886 25.834 135.688 26.71 135.688 27.718C135.688 28.714 135.886 29.59 136.282 30.346C136.69 31.102 137.242 31.684 137.938 32.092C138.646 32.5 139.438 32.704 140.314 32.704ZM158.478 21.454V22.786H155.058V34H153.42V22.786H149.982V21.454H158.478Z" fill="black"/>
</svg>
